<?xml version="1.0" encoding="utf-8"?>
<!-- Generator: Adobe Illustrator 16.0.0, SVG Export Plug-In . SVG Version: 6.00 Build 0)  -->
<!DOCTYPE svg PUBLIC "-//W3C//DTD SVG 1.1//EN" "http://www.w3.org/Graphics/SVG/1.1/DTD/svg11.dtd">
<svg version="1.1" id="Layer_1" xmlns="http://www.w3.org/2000/svg" xmlns:xlink="http://www.w3.org/1999/xlink" x="0px" y="0px"
	 width="48px" height="48px" viewBox="0 0 48 48" enable-background="new 0 0 48 48" xml:space="preserve">
<g>
	<path fill="#9E9E9E" d="M27.459,21.21c0.077,0.018,0.15,0.027,0.225,0.027c0.414,0,0.789-0.278,0.894-0.697l0.112-0.446
		c0.121-0.494-0.176-0.993-0.672-1.116c-0.5-0.127-0.994,0.177-1.115,0.67l-0.111,0.446C26.666,20.586,26.965,21.087,27.459,21.21z"
		/>
	<path fill="#9E9E9E" d="M32.286,16.994c0,0.508,0.411,0.921,0.921,0.921c0.508,0,0.92-0.413,0.92-0.921v-0.716
		c0-0.508-0.412-0.921-0.92-0.921c-0.51,0-0.921,0.413-0.921,0.921V16.994z"/>
	<path fill="#9E9E9E" d="M28.29,17.888c0.076,0.019,0.149,0.028,0.224,0.028c0.412,0,0.788-0.278,0.894-0.698l0.18-0.72
		c0.124-0.493-0.175-0.992-0.669-1.116c-0.504-0.126-0.995,0.177-1.116,0.67l-0.18,0.72C27.496,17.264,27.797,17.765,28.29,17.888z"
		/>
	<path fill="#9E9E9E" d="M29.188,14.291c0.076,0.019,0.149,0.028,0.224,0.028c0.413,0,0.789-0.278,0.894-0.698l0.112-0.445
		c0.123-0.493-0.175-0.993-0.67-1.116c-0.501-0.125-0.994,0.175-1.116,0.67l-0.111,0.445C28.396,13.668,28.695,14.167,29.188,14.291
		z"/>
	<path fill="#9E9E9E" d="M37.727,20.095l0.111,0.446c0.104,0.419,0.479,0.697,0.893,0.697c0.074,0,0.148-0.009,0.224-0.027
		c0.493-0.124,0.792-0.623,0.671-1.116l-0.113-0.446c-0.121-0.493-0.627-0.799-1.115-0.67
		C37.902,19.102,37.604,19.601,37.727,20.095z"/>
	<path fill="#9E9E9E" d="M37.782,12.729c-0.123-0.496-0.634-0.798-1.116-0.67c-0.493,0.123-0.791,0.623-0.67,1.116l0.111,0.445
		c0.104,0.42,0.479,0.698,0.894,0.698c0.074,0,0.149-0.009,0.224-0.028c0.494-0.124,0.791-0.623,0.67-1.116L37.782,12.729z"/>
	<path fill="#9E9E9E" d="M38.613,16.053c-0.125-0.493-0.635-0.799-1.115-0.67c-0.495,0.124-0.793,0.623-0.672,1.116l0.181,0.72
		c0.104,0.42,0.479,0.698,0.894,0.698c0.074,0,0.149-0.009,0.223-0.028c0.494-0.123,0.793-0.622,0.672-1.115L38.613,16.053z"/>
	<path fill="#9E9E9E" d="M32.286,20.317c0,0.508,0.411,0.92,0.921,0.92c0.508,0,0.92-0.412,0.92-0.92v-0.46
		c0-0.508-0.412-0.92-0.92-0.92c-0.51,0-0.921,0.412-0.921,0.92V20.317z"/>
	<path fill="#9E9E9E" d="M33.207,14.333c0.508,0,0.92-0.413,0.92-0.921v-0.46c0-0.508-0.412-0.921-0.92-0.921
		c-0.51,0-0.921,0.413-0.921,0.921v0.46C32.286,13.92,32.697,14.333,33.207,14.333z"/>
	<path fill="#9E9E9E" d="M46.096,22.159V7.428c0-2.96-1.961-7.365-7.365-7.365c-4.545,0-6.635,3.116-7.188,5.869
		c-2.199,0.707-3.801,2.746-3.801,5.179h10.935c0-2.287-1.408-4.241-3.4-5.056c0.346-1.065,1.222-2.31,3.457-2.31
		c3.361,0,3.668,2.83,3.683,3.683v14.731h-1.087H6.672H1.904H0.062V24v1.842v1.835h1.699c0.047,0.003,0.095,0.007,0.143,0.007v5.523
		c0,3.991,3.368,7.912,7.263,8.939c-0.177,0.871-0.624,2.033-1.639,2.104V44.25H5.592v1.713c-0.003,0.043-0.005,0.087-0.005,0.132
		c0,0.046,0.002,0.089,0.005,0.134v1.709h1.936v-0.002c3.119-0.058,4.958-2.709,5.341-5.522h22.26
		c0.387,2.835,2.253,5.509,5.417,5.522v0.002h1.866V44.25h-1.866v0.003c-1.069-0.019-1.532-1.215-1.714-2.106
		c3.896-1.027,7.264-4.948,7.264-8.939v-5.523c0.049,0,0.098-0.004,0.145-0.007h1.697v-1.835V24v-1.841H46.096z"/>
</g>
</svg>
