<?xml version="1.0" encoding="utf-8"?>
<!-- Generator: Adobe Illustrator 19.0.0, SVG Export Plug-In . SVG Version: 6.00 Build 0)  -->
<svg version="1.1" id="Layer_1" xmlns="http://www.w3.org/2000/svg" xmlns:xlink="http://www.w3.org/1999/xlink" x="0px" y="0px"
	 viewBox="-281 373 48 48" style="enable-background:new -281 373 48 48;" xml:space="preserve">
<style type="text/css">
	.st0{fill:#FFFFFF;}
</style>
<path class="st0" d="M-256.9,389.3c-4.2,0-7.7,3.4-7.7,7.7s3.4,7.7,7.7,7.7c4.2,0,7.7-3.4,7.7-7.7S-252.7,389.3-256.9,389.3z
	 M-239.7,395.1c-0.9-8-7.2-14.4-15.3-15.3v-4h-3.8v4c-8,0.9-14.4,7.2-15.3,15.3h-4v3.8h4c0.9,8,7.2,14.4,15.3,15.3v4h3.8v-4
	c8-0.9,14.4-7.2,15.3-15.3h4v-3.8C-235.8,395.1-239.7,395.1-239.7,395.1z M-256.9,410.5c-7.4,0-13.5-6-13.5-13.5s6-13.5,13.5-13.5
	c7.4,0,13.5,6,13.5,13.5S-249.5,410.5-256.9,410.5z"/>
</svg>
