<?xml version="1.0" encoding="utf-8"?>
<!-- Generator: Adobe Illustrator 16.0.0, SVG Export Plug-In . SVG Version: 6.00 Build 0)  -->
<!DOCTYPE svg PUBLIC "-//W3C//DTD SVG 1.1//EN" "http://www.w3.org/Graphics/SVG/1.1/DTD/svg11.dtd">
<svg version="1.1" id="Layer_1" xmlns="http://www.w3.org/2000/svg" xmlns:xlink="http://www.w3.org/1999/xlink" x="0px" y="0px"
	 width="512px" height="512px" viewBox="0 0 512 512" enable-background="new 0 0 512 512" xml:space="preserve">
<g>
	<path fill="#FFFFFF" d="M399.791,5.328h-38.955c-23.898,0-42.931,19.324-42.931,43.084c0,23.829,19.324,43.084,42.931,43.084
		h38.955c12.464,0,22.609,10.153,22.609,22.602v285.297c0,12.449-10.16,22.609-22.609,22.609h-38.955
		c-23.898,0-42.931,19.309-42.931,43.1c0,23.898,19.324,43.085,42.931,43.085h38.955c59.923,0,108.824-48.794,108.824-108.823
		V114.067C508.615,54.198,459.775,5.328,399.791,5.328z"/>
	<path fill="#FFFFFF" d="M380.56,252.03c0-11.021-4.267-22.018-12.709-30.46L235.175,88.872c-16.7-16.838-44.205-16.838-60.981,0
		c-16.699,16.769-16.699,44.159,0,60.966l59.262,59.239H48.64c-23.914,0-43.069,19.316-43.069,43.061
		c0,23.837,19.325,43.115,43.069,43.115H233.44l-56.638,56.515c-16.7,16.822-16.7,44.205,0,61.027
		c16.761,16.776,44.189,16.776,61.089,0l129.989-130.051C376.523,274.071,380.56,263.112,380.56,252.03z"/>
</g>
</svg>
