<?xml version="1.0" encoding="utf-8"?>
<!-- Generator: Adobe Illustrator 16.0.0, SVG Export Plug-In . SVG Version: 6.00 Build 0)  -->
<!DOCTYPE svg PUBLIC "-//W3C//DTD SVG 1.1//EN" "http://www.w3.org/Graphics/SVG/1.1/DTD/svg11.dtd">
<svg version="1.1" id="Layer_1" xmlns="http://www.w3.org/2000/svg" xmlns:xlink="http://www.w3.org/1999/xlink" x="0px" y="0px"
	 width="48px" height="48px" viewBox="0 0 48 48" enable-background="new 0 0 48 48" xml:space="preserve">
<path fill="#FFFFFF" d="M31,28h-1.59l-0.551-0.55C30.82,25.18,32,22.23,32,19c0-7.18-5.82-13-13-13C11.82,6,6,11.82,6,19
	c0,7.18,5.82,13,13,13c3.23,0,6.18-1.18,8.45-3.13L28,29.42V31l10,9.98L40.98,38L31,28z M19,28c-4.97,0-9-4.03-9-9s4.03-9,9-9
	s9,4.03,9,9S23.97,28,19,28z"/>
</svg>
