<?xml version="1.0" encoding="utf-8"?>
<!-- Generator: Adobe Illustrator 16.0.0, SVG Export Plug-In . SVG Version: 6.00 Build 0)  -->
<!DOCTYPE svg PUBLIC "-//W3C//DTD SVG 1.1//EN" "http://www.w3.org/Graphics/SVG/1.1/DTD/svg11.dtd">
<svg version="1.1" id="Layer_1" xmlns="http://www.w3.org/2000/svg" xmlns:xlink="http://www.w3.org/1999/xlink" x="0px" y="0px"
	 width="396.25px" height="127.008px" viewBox="0 0 396.25 127.008" enable-background="new 0 0 396.25 127.008"
	 xml:space="preserve">
<path fill="#FFFFFF" d="M63.349,82.891c-0.762,3.711-1.931,7.068-3.503,10.086c-1.652,3.166-3.73,5.881-6.236,8.146
	c-2.514,2.27-5.416,4.021-8.717,5.261c-3.299,1.235-6.943,1.86-10.929,1.86c-4.472,0-8.648-0.76-12.529-2.27
	c-3.886-1.517-7.239-3.783-10.056-6.811c-2.818-3.021-5.037-6.751-6.651-11.188C3.11,83.54,2.303,78.368,2.303,72.456
	c0-5.772,0.74-10.987,2.215-15.626c1.479-4.639,3.592-8.557,6.342-11.755c2.752-3.198,6.1-5.654,10.058-7.376
	c3.953-1.716,8.368-2.575,13.251-2.575c4.26,0,8.13,0.636,11.602,1.909c3.47,1.271,6.461,3.024,8.974,5.258
	c2.504,2.234,4.5,4.863,5.98,7.89c1.392,2.856,2.284,5.896,2.67,9.119c0.022,0.192,0.042,0.373-0.083,0.495
	c-0.123,0.124-0.376,0.08-0.376,0.08H49.754h-0.118c0,0-0.305,0.017-0.434-0.109c-0.14-0.139-0.164-0.222-0.2-0.354
	c-0.019-0.063-0.019-0.063-0.034-0.126c-1-3.635-2.807-6.481-5.415-8.538C40.8,48.582,37.71,47.5,34.273,47.5
	c-5.985,0-10.386,2.151-13.203,6.445c-2.82,4.297-4.229,10.194-4.229,17.685c0,7.632,1.396,13.562,4.18,17.788
	c2.784,4.229,6.958,6.343,12.527,6.343c4.263,0,7.685-1.153,10.26-3.452c2.483-2.221,4.217-5.381,5.203-9.477
	c0.04-0.159,0.109-0.264,0.209-0.354c0.185-0.166,0.548-0.123,0.548-0.123l13.108-0.002c0,0,0.246,0.006,0.362,0.107
	C63.362,82.566,63.384,82.715,63.349,82.891z"/>
<path fill="#FFFFFF" d="M100.595,107.969c-0.338,0-0.617-0.275-0.617-0.613V57.852c0-0.34,0.278-0.617,0.617-0.617h12.173
	c0.34,0,0.619,0.277,0.619,0.617v49.501c0,0.338-0.279,0.613-0.619,0.613L100.595,107.969L100.595,107.969z"/>
<path fill="#FFFFFF" d="M166.751,71.521c-0.929-3.201-2.285-5.965-4.072-8.304c-1.79-2.338-3.973-4.143-6.549-5.417
	c-2.581-1.269-5.519-1.906-8.817-1.906c-6.258,0-11.275,2.647-15.057,7.941V50.29v-2.686v-1.256v-3.879v-2.54
	c0-0.69-0.567-1.257-1.258-1.257h-10.684c-0.69,0-1.259,0.567-1.259,1.257v2.54v3.879v1.256v2.686v48.384v5.944v2.735
	c0,0.338,0.278,0.613,0.618,0.613h11.74c0.338,0,0.617-0.275,0.617-0.613v-4.332l0.022-1.229c3.095,5.017,7.801,7.526,14.125,7.526
	c3.16,0,6.104-0.619,8.817-1.855c2.715-1.24,5.037-3.023,6.963-5.365c1.921-2.338,3.437-5.189,4.537-8.561s1.65-7.182,1.65-11.446
	C168.144,78.238,167.68,74.717,166.751,71.521z M151.334,94.104c-2.133,2.855-4.882,4.282-8.252,4.282
	c-3.23,0-5.925-1.342-8.094-4.021c-2.165-2.684-3.25-6.188-3.25-10.521c0-11,3.749-16.5,11.244-16.5
	c7.702,0,11.548,5.227,11.548,15.676C154.53,87.557,153.46,91.252,151.334,94.104z"/>
<path fill="#FFFFFF" d="M96.582,69.023L96.58,56.507c0,0,0.016-0.252-0.167-0.434c-0.181-0.184-0.41-0.178-0.41-0.178h-1.177
	c-1.378,0-2.717,0.07-4.024,0.207c-1.301,0.142-2.592,0.464-3.863,0.979c-1.274,0.516-2.511,1.255-3.713,2.217
	s-2.355,2.304-3.452,4.024v-1.284V59.66v-1.809c0-0.34-0.278-0.617-0.619-0.617h-11.35c-0.339,0-0.618,0.277-0.618,0.617v1.809
	v2.378v41.426v2.036v1.854c0,0.338,0.278,0.614,0.618,0.614h12.172c0.341,0,0.618-0.276,0.618-0.614v-1.584v-2.306V81.572
	c0-8.178,4.088-12.273,12.273-12.273c1.097,0,2.016,0.057,3.116,0.221c0.13,0.013,0.284,0.037,0.475-0.117
	C96.591,69.295,96.582,69.023,96.582,69.023z"/>
<path fill="#EEEEEE" d="M392.59,74.562h-11.242c-0.342,0-0.619,0.275-0.619,0.617v1.141v0.975v10.473
	c0,3.162-0.639,5.604-1.908,7.322c-1.273,1.719-3.252,2.58-5.932,2.58c-2.75,0-4.729-0.88-5.929-2.635
	c-1.209-1.754-1.812-4.242-1.812-7.479V67.188c0,0-0.02-0.153,0.119-0.317c0.109-0.138,0.306-0.146,0.306-0.146h23.325h1.844h1.848
	c0.336,0,0.615-0.276,0.615-0.615v-8.256c0-0.34-0.279-0.617-0.615-0.617h-1.848h-1.844h-22.881c0,0-0.525,0.01-0.699-0.153
	c-0.229-0.216-0.17-0.765-0.17-0.765v-9.101v-1.541v-1.538c0-0.341-0.277-0.618-0.615-0.618h-11.969
	c-0.338,0-0.617,0.277-0.617,0.618v1.482v1.596V88.9c0,2.75,0.38,5.357,1.137,7.836c0.755,2.479,1.975,4.643,3.664,6.498
	c1.684,1.858,3.831,3.341,6.445,4.435c2.608,1.104,5.777,1.651,9.481,1.651c3.583,0,6.661-0.549,9.234-1.651
	c2.579-1.094,4.709-2.593,6.396-4.481c1.687-1.894,2.922-4.06,3.713-6.502c0.785-2.439,1.188-5.004,1.188-7.683V77.295V76.32V75.18
	C393.208,74.84,392.93,74.562,392.59,74.562z"/>
<path fill="#EEEEEE" d="M345.3,65.537c-0.856-2.095-2.026-3.867-3.505-5.312c-1.479-1.443-3.249-2.526-5.311-3.249
	c-2.065-0.718-4.299-1.083-6.707-1.083c-4.127,0-7.496,0.742-10.105,2.221c-2.328,1.312-4.245,3.186-5.752,5.616
	c0,0-0.165,0.333-0.355,0.293c-0.19-0.04-0.187-0.396-0.187-0.396V60.63v-1.542v-1.236c0-0.338-0.278-0.617-0.619-0.617h-11.554
	c-0.34,0-0.618,0.279-0.618,0.617v1.236v1.542v45.394v0.463v0.873c0,0.342,0.278,0.617,0.618,0.617h12.173
	c0.343,0,0.617-0.275,0.617-0.617v-0.94v-0.396V78.895c0-7.771,3.476-11.654,10.418-11.654c3.163,0,5.396,0.688,6.704,2.061
	c1.307,1.381,1.959,4.026,1.959,7.943v27.988v1.062v1.064c0,0.34,0.277,0.615,0.617,0.615h12.279c0.34,0,0.616-0.275,0.616-0.615
	v-1.064v-1.062V72.811C346.591,70.061,346.157,67.633,345.3,65.537z"/>
<path fill="#EEEEEE" d="M294.604,57.233h-12.069c-0.339,0-0.615,0.279-0.615,0.617v1.465v1.469v25.743
	c0,3.369-0.877,6.134-2.632,8.303c-1.751,2.168-4.346,3.249-7.784,3.249c-5.706,0-8.562-3.161-8.562-9.489V60.27v-1.055v-1.364
	c0-0.338-0.277-0.617-0.617-0.617H250.15c-0.34,0-0.618,0.279-0.618,0.617v1.364v1.055v30.38c0,2.824,0.436,5.367,1.291,7.635
	c0.856,2.27,2.044,4.229,3.562,5.88c1.512,1.647,3.316,2.92,5.414,3.812c2.096,0.895,4.418,1.344,6.961,1.344
	c7.08,0,12.344-2.821,15.781-8.455v3.607v1.445v1.441c0,0.341,0.277,0.617,0.618,0.617h11.444c0.34,0,0.617-0.276,0.617-0.617
	v-0.805v-2.084V60.785v-1.469v-1.465C295.223,57.512,294.943,57.233,294.604,57.233z"/>
<path fill="#FFFFFF" d="M100.595,53.464c-0.338,0-0.617-0.28-0.617-0.618V41.603c0-0.342,0.278-0.619,0.617-0.619h12.173
	c0.34,0,0.615,0.277,0.615,0.619v11.243c0,0.338-0.275,0.618-0.615,0.618H100.595z"/>
<path fill="#EEEEEE" d="M215.878,108.244c0.448,0,0.815-0.367,0.815-0.814V81.178c0-0.446-0.321-0.99-0.715-1.207l-6.531-3.592
	c-0.18-0.098-0.415-0.139-0.651-0.149v32.016L215.878,108.244L215.878,108.244z"/>
<path fill="#FFFFFF" d="M208.279,43.253l-16.585,9.722c-0.387,0.225-0.703,0.045-0.703-0.402v-34.49
	c0-0.447-0.368-0.815-0.815-0.815l-17.409,8.897c-0.625,0.302-0.814,0.367-0.814,0.815v80.417c0,0.447,0.366,0.814,0.814,0.814
	h17.409c0.447,0,0.815-0.367,0.815-0.814V73.355c0-0.446,0.316-0.998,0.703-1.228l16.585-9.719c0.142-0.086,0.332-0.103,0.517-0.125
	V43.13C208.611,43.15,208.423,43.169,208.279,43.253z"/>
<path fill="#FFFFFF" d="M208.014,76.367l-6.826,3.614c-0.396,0.212-0.72,0.749-0.72,1.196v26.249c0,0.448,0.366,0.815,0.815,0.815
	h7.513V76.229C208.516,76.217,208.229,76.256,208.014,76.367z"/>
<path fill="#EEEEEE" d="M244.812,63.769c0,0-18.68-10.71-19.063-10.942l-16.075-9.702c-0.244-0.145-0.57-0.17-0.884-0.131v19.152
	c0.312-0.036,0.64-0.014,0.884,0.13l16.075,9.705c0.386,0.23,0.698,0.785,0.698,1.234v34.03c0,0.45,0.365,0.815,0.812,0.815h17.554
	c0.448,0,0.813-0.365,0.813-0.815V64.582C245.626,64.134,245.287,64.068,244.812,63.769z"/>
</svg>
