<?xml version="1.0" encoding="utf-8"?>
<!-- Generator: Adobe Illustrator 16.0.0, SVG Export Plug-In . SVG Version: 6.00 Build 0)  -->
<!DOCTYPE svg PUBLIC "-//W3C//DTD SVG 1.1//EN" "http://www.w3.org/Graphics/SVG/1.1/DTD/svg11.dtd">
<svg version="1.1" id="Layer_1" xmlns="http://www.w3.org/2000/svg" xmlns:xlink="http://www.w3.org/1999/xlink" x="0px" y="0px"
	 width="396.25px" height="106.25px" viewBox="0 0 396.25 106.25" enable-background="new 0 0 396.25 106.25" xml:space="preserve">
<path fill="#FFFFFF" d="M361.3,102.4c-1.81,0-0.319-50.34-0.319-50.34c-0.03-1.4-1.261-1.311-2.69-1.311c-3.73,0-24.95,0-24.95,0
	S331,50.26,331,48.02c0-2.569,0-26.39,0-26.39s-0.09-1.909,1.15-2.899c1.25-1,28.699-17.291,28.699-17.291
	c0.5-0.04,1.311-0.06,1.95-0.06c4.15,0,8.141,0.77,11.79,2.18c9.29,3.59,16.351,11.29,19.3,20.87c0.771,2.61,1.11,5.33,1.11,8.021
	c0,0,0,0,0,0.01C398,65.061,362.2,102.4,361.3,102.4z"/>
<g>
	<path fill="#FFFFFF" d="M55.601,81.96c-0.654,3.382-1.691,6.438-3.115,9.167c-1.424,2.729-3.22,5.073-5.385,7.031
		c-2.166,1.958-4.672,3.471-7.521,4.539c-2.848,1.067-5.993,1.602-9.434,1.602c-3.857,0-7.462-0.653-10.813-1.958
		c-3.353-1.305-6.245-3.263-8.678-5.874c-2.434-2.61-4.347-5.829-5.74-9.656C3.52,82.983,2.823,78.52,2.823,73.416
		c0-4.984,0.637-9.479,1.913-13.483c1.275-4.005,3.101-7.387,5.474-10.146c2.373-2.759,5.266-4.879,8.678-6.363
		c3.411-1.482,7.223-2.225,11.437-2.225c3.679,0,7.016,0.549,10.013,1.646c2.995,1.099,5.576,2.611,7.743,4.539
		c2.165,1.929,3.885,4.198,5.162,6.809c1.274,2.611,2.061,5.399,2.358,8.365H43.229c-0.832-3.382-2.434-6.007-4.807-7.876
		s-5.043-2.804-8.01-2.804c-5.162,0-8.96,1.855-11.392,5.562c-2.434,3.709-3.649,8.797-3.649,15.264
		c0,6.586,1.202,11.703,3.604,15.353c2.403,3.648,6.008,5.474,10.813,5.474c3.679,0,6.631-0.993,8.855-2.981
		c2.226-1.987,3.752-4.851,4.584-8.589H55.601z"/>
	<path fill="#FFFFFF" d="M61.473,102.252V58.464H72.33v5.251c0.948-1.482,1.942-2.64,2.981-3.471
		c1.037-0.83,2.105-1.469,3.204-1.914c1.098-0.444,2.21-0.726,3.338-0.845c1.126-0.118,2.283-0.179,3.471-0.179h1.513v11.837
		c-1.067-0.178-2.136-0.267-3.204-0.267c-7.062,0-10.591,3.531-10.591,10.591v22.784H61.473z"/>
	<path fill="#FFFFFF" d="M93.334,53.213V42.444h11.57v10.769H93.334z M93.334,102.252V58.464h11.57v43.788H93.334z"/>
	<path fill="#FFFFFF" d="M113.357,102.252V42.444h11.392V64.16c3.263-4.568,7.594-6.854,12.994-6.854
		c2.848,0,5.385,0.55,7.609,1.646c2.225,1.099,4.107,2.656,5.651,4.673c1.542,2.018,2.715,4.405,3.516,7.164
		c0.801,2.76,1.201,5.801,1.201,9.123c0,3.68-0.476,6.973-1.424,9.879c-0.949,2.908-2.256,5.37-3.916,7.387
		c-1.662,2.018-3.664,3.561-6.008,4.628c-2.344,1.068-4.881,1.603-7.609,1.603c-5.459,0-9.522-2.165-12.192-6.497l-0.089,5.34
		H113.357z M134.094,93.975c2.906,0,5.28-1.23,7.12-3.693c1.839-2.461,2.759-5.651,2.759-9.567c0-9.019-3.323-13.528-9.968-13.528
		c-6.468,0-9.701,4.748-9.701,14.24c0,3.738,0.935,6.765,2.804,9.078C128.977,92.818,131.305,93.975,134.094,93.975z"/>
	<path fill="#FFFFFF" d="M198.263,102.252V75.729h-23.051v26.522h-12.371V43.156h12.371v22.25h23.051v-22.25h12.46v59.096H198.263z"
		/>
	<path fill="#FFFFFF" d="M246.944,102.252v-6.141c-2.968,4.865-7.507,7.298-13.617,7.298c-2.195,0-4.198-0.387-6.007-1.157
		c-1.811-0.771-3.368-1.869-4.673-3.293c-1.306-1.424-2.329-3.115-3.07-5.073c-0.743-1.958-1.112-4.152-1.112-6.586V58.464h11.569
		V85.52c0,5.46,2.462,8.188,7.388,8.188c2.966,0,5.206-0.935,6.719-2.804c1.514-1.869,2.27-4.257,2.27-7.164V58.464h11.481v43.788
		H246.944z"/>
	<path fill="#FFFFFF" d="M294.114,102.252V75.729c0-3.382-0.564-5.665-1.69-6.853c-1.128-1.187-3.057-1.78-5.785-1.78
		c-5.993,0-8.989,3.354-8.989,10.058v25.098H266.08V58.464h11.035v6.408c1.364-2.492,3.174-4.375,5.43-5.651
		c2.254-1.275,5.162-1.914,8.722-1.914c2.076,0,4.005,0.312,5.785,0.935s3.307,1.558,4.583,2.804
		c1.275,1.246,2.284,2.774,3.026,4.584c0.741,1.811,1.112,3.901,1.112,6.274v30.349H294.114z"/>
	<path fill="#FFFFFF" d="M338.79,73.416h10.77v12.46c0,2.314-0.342,4.525-1.023,6.631c-0.683,2.106-1.751,3.976-3.204,5.606
		c-1.455,1.633-3.293,2.923-5.518,3.872c-2.226,0.948-4.882,1.424-7.966,1.424c-3.204,0-5.934-0.476-8.188-1.424
		c-2.255-0.949-4.109-2.226-5.562-3.827c-1.454-1.603-2.507-3.472-3.159-5.607c-0.653-2.136-0.979-4.39-0.979-6.764v-39.16h11.392
		v11.837h24.208v8.188h-24.208V84.63c0,2.79,0.519,4.939,1.558,6.452c1.037,1.514,2.743,2.27,5.117,2.27
		c2.314,0,4.02-0.741,5.117-2.225c1.098-1.482,1.646-3.589,1.646-6.319V73.416z"/>
</g>
</svg>
