<?xml version="1.0" encoding="utf-8"?>
<!-- Generator: Adobe Illustrator 16.0.0, SVG Export Plug-In . SVG Version: 6.00 Build 0)  -->
<!DOCTYPE svg PUBLIC "-//W3C//DTD SVG 1.1//EN" "http://www.w3.org/Graphics/SVG/1.1/DTD/svg11.dtd">
<svg version="1.1" id="Layer_1" xmlns="http://www.w3.org/2000/svg" xmlns:xlink="http://www.w3.org/1999/xlink" x="0px" y="0px"
	 width="396.25px" height="127.008px" viewBox="0 0 396.25 127.008" enable-background="new 0 0 396.25 127.008"
	 xml:space="preserve">
<path fill="#FFFFFF" d="M59.387,79.854c-0.72,3.724-1.861,7.088-3.429,10.092c-1.567,3.007-3.545,5.587-5.927,7.74
	c-2.386,2.154-5.145,3.82-8.279,4.998c-3.136,1.174-6.599,1.765-10.386,1.765c-4.247,0-8.215-0.722-11.904-2.156
	c-3.691-1.437-6.875-3.592-9.553-6.467c-2.679-2.873-4.785-6.416-6.32-10.632C2.053,80.98,1.287,76.066,1.287,70.45
	c0-5.486,0.701-10.437,2.106-14.844c1.404-4.41,3.412-8.133,6.025-11.17c2.612-3.038,5.795-5.372,9.553-7.006
	c3.755-1.631,7.951-2.449,12.59-2.449c4.049,0,7.723,0.604,11.022,1.813c3.298,1.209,6.139,2.875,8.524,4.997
	c2.383,2.123,4.277,4.621,5.682,7.496c1.404,2.874,2.269,5.944,2.597,9.209H45.769c-0.916-3.723-2.68-6.613-5.291-8.67
	c-2.614-2.059-5.553-3.087-8.818-3.087c-5.683,0-9.864,2.043-12.541,6.124c-2.68,4.082-4.017,9.684-4.017,16.802
	c0,7.25,1.323,12.885,3.968,16.901c2.645,4.016,6.613,6.025,11.904,6.025c4.049,0,7.299-1.094,9.749-3.281
	c2.45-2.188,4.131-5.342,5.046-9.455L59.387,79.854L59.387,79.854z"/>
<path fill="#FFFFFF" d="M61.934,102.191V53.988h11.953v5.781c1.044-1.632,2.139-2.906,3.282-3.822
	c1.142-0.913,2.318-1.616,3.528-2.105c1.208-0.49,2.433-0.798,3.673-0.93c1.24-0.13,2.514-0.196,3.822-0.196h1.666v13.031
	c-1.176-0.197-2.352-0.297-3.528-0.297c-7.774,0-11.659,3.889-11.659,11.659v25.082H61.934z"/>
<path fill="#FFFFFF" d="M93.089,48.208V36.352h12.736v11.856H93.089z M93.089,102.191V53.988h12.736v48.204H93.089z"/>
<path fill="#FFFFFF" d="M111.213,102.191V36.352h12.541v23.907c3.591-5.028,8.36-7.543,14.305-7.543
	c3.135,0,5.927,0.604,8.376,1.812c2.45,1.209,4.522,2.923,6.222,5.144c1.698,2.222,2.988,4.85,3.87,7.889
	c0.881,3.037,1.322,6.383,1.322,10.043c0,4.051-0.524,7.674-1.567,10.873c-1.045,3.203-2.483,5.914-4.311,8.133
	c-1.829,2.224-4.034,3.92-6.614,5.097c-2.58,1.176-5.374,1.765-8.376,1.765c-6.01,0-10.483-2.386-13.423-7.152l-0.097,5.877h-12.248
	V102.191L111.213,102.191z M134.041,93.083c3.201,0,5.813-1.354,7.839-4.067c2.023-2.709,3.037-6.222,3.037-10.531
	c0-9.928-3.659-14.893-10.973-14.893c-7.12,0-10.68,5.227-10.68,15.676c0,4.116,1.028,7.444,3.086,9.994
	C128.408,91.809,130.971,93.083,134.041,93.083z"/>
<path fill="#FFFFFF" d="M338.246,102.191V72.995c0-3.722-0.621-6.236-1.861-7.545c-1.244-1.304-3.365-1.958-6.369-1.958
	c-6.598,0-9.896,3.689-9.896,11.072v27.627h-12.737V53.988h12.149v7.055c1.501-2.743,3.493-4.817,5.978-6.221
	c2.48-1.404,5.682-2.106,9.602-2.106c2.287,0,4.408,0.343,6.369,1.026c1.959,0.688,3.64,1.716,5.045,3.087
	c1.404,1.373,2.516,3.056,3.332,5.047c0.813,1.992,1.226,4.294,1.226,6.908v33.407H338.246z"/>
<path fill="#FFFFFF" d="M383.51,70.45h11.856v13.717c0,2.545-0.38,4.979-1.128,7.299c-0.752,2.318-1.928,4.377-3.527,6.175
	c-1.604,1.795-3.626,3.217-6.075,4.26c-2.448,1.045-5.372,1.567-8.77,1.567c-3.526,0-6.531-0.522-9.013-1.567
	c-2.483-1.043-4.522-2.447-6.123-4.213c-1.604-1.765-2.763-3.818-3.479-6.172c-0.72-2.354-1.079-4.834-1.079-7.447V40.959h12.542
	v13.03h26.649v9.015h-26.649v19.791c0,3.072,0.57,5.438,1.716,7.104c1.141,1.666,3.021,2.5,5.633,2.5
	c2.547,0,4.424-0.817,5.635-2.451c1.207-1.633,1.812-3.95,1.812-6.954L383.51,70.45L383.51,70.45z"/>
<g>
	<path fill="#FFFFFF" d="M269.145,33.938"/>
</g>
<path fill="#FFFFFF" d="M290.236,102.191v-6.76c-3.266,5.355-8.264,8.035-14.988,8.035c-2.418,0-4.622-0.428-6.615-1.275
	c-1.992-0.848-3.707-2.057-5.143-3.623c-1.438-1.567-2.565-3.43-3.381-5.584c-0.816-2.155-1.227-4.571-1.227-7.252V53.988h12.737
	v29.786c0,6.011,2.71,9.015,8.132,9.015c3.268,0,5.73-1.027,7.396-3.086c1.666-2.06,2.498-4.688,2.498-7.888V53.988h12.64v48.204
	H290.236z"/>
<polygon fill="#FFFFFF" points="166.625,-17.375 196.625,-17.375 196.625,-14.956 166.625,9.313 "/>
<polygon fill="#FFFFFF" points="156.652,39.56 150.672,32.2 211.607,-20.759 272.54,32.2 266.033,39.56 211.607,-8.273 "/>
<polygon fill="#FFFFFF" points="222.625,11.84 222.625,47.625 196.625,47.625 196.625,12.007 166.625,36.746 166.625,105.625 
	196.625,105.625 196.625,70.625 222.625,70.625 222.625,105.625 252.625,105.625 252.625,36.746 "/>
</svg>
