<?xml version="1.0" encoding="utf-8"?>
<!-- Generator: Adobe Illustrator 16.0.0, SVG Export Plug-In . SVG Version: 6.00 Build 0)  -->
<!DOCTYPE svg PUBLIC "-//W3C//DTD SVG 1.1//EN" "http://www.w3.org/Graphics/SVG/1.1/DTD/svg11.dtd">
<svg version="1.1" id="Layer_1" xmlns="http://www.w3.org/2000/svg" xmlns:xlink="http://www.w3.org/1999/xlink" x="0px" y="0px"
	 width="396.25px" height="127.008px" viewBox="0 0 396.25 127.008" enable-background="new 0 0 396.25 127.008"
	 xml:space="preserve">
<g>
	<path fill="#FFFFFF" d="M267.818,54.583"/>
</g>
<g>
	<path fill="#FFFFFF" d="M165.446,4.343c0-0.55,0.45-1,1-1h27.957c0.55,0,1,0.45,1,1v0.415c0,0.55-0.35,1.283-0.777,1.629
		l-28.402,22.976c-0.427,0.346-0.777,0.179-0.777-0.371V4.343z"/>
</g>
<g>
	<path fill="#FFFFFF" d="M154.245,59.54c-0.415,0.361-1.038,0.308-1.385-0.119l-4.71-5.797c-0.347-0.427-0.291-1.071,0.124-1.432
		L207.612,0.62c0.415-0.36,1.095-0.36,1.51,0l59.336,51.571c0.415,0.36,0.457,0.993,0.093,1.405l-5.174,5.851
		c-0.364,0.412-1,0.452-1.413,0.089l-52.846-46.444c-0.413-0.363-1.091-0.365-1.505-0.003L154.245,59.54z"/>
</g>
<g>
	<path fill="#FFFFFF" d="M222.136,33.154c-0.423-0.351-0.77-0.188-0.77,0.361V67.25c0,0.55-0.45,1-1,1h-23.963c-0.55,0-1-0.45-1-1
		V33.683c0-0.55-0.347-0.714-0.771-0.364L166.217,56.75c-0.424,0.35-0.771,1.086-0.771,1.636v66.779c0,0.55,0.45,1,1,1h27.957
		c0.55,0,1-0.45,1-1v-32.95c0-0.55,0.45-1,1-1h23.963c0.55,0,1,0.45,1,1v32.95c0,0.55,0.45,1,1,1h27.956c0.55,0,1-0.45,1-1V58.387
		c0-0.55-0.347-1.288-0.77-1.639L222.136,33.154z"/>
</g>
<path fill="#FFFFFF" d="M59.272,101.938c-0.721,3.518-1.827,6.705-3.322,9.567c-1.564,3.002-3.538,5.578-5.916,7.726
	c-2.385,2.153-5.139,3.815-8.268,4.992c-3.131,1.173-6.59,1.764-10.37,1.764c-4.24,0-8.202-0.723-11.886-2.153
	c-3.685-1.435-6.864-3.587-9.537-6.457c-2.676-2.869-4.779-6.405-6.311-10.616c-1.533-4.206-2.298-9.112-2.298-14.719
	c0-5.479,0.7-10.423,2.103-14.823C4.87,72.817,6.875,69.1,9.484,66.067c2.608-3.032,5.786-5.363,9.538-6.996
	c3.75-1.628,7.939-2.444,12.57-2.444c4.042,0,7.711,0.603,11.005,1.811c3.292,1.207,6.13,2.869,8.511,4.988
	c2.38,2.12,4.27,4.614,5.673,7.484c1.324,2.71,2.167,5.595,2.534,8.653c0.021,0.18,0.041,0.349-0.076,0.466
	s-0.357,0.076-0.357,0.076H46.376h-0.11c0,0-0.293,0.016-0.412-0.104c-0.131-0.13-0.157-0.209-0.19-0.335
	c-0.016-0.06-0.016-0.06-0.032-0.119c-0.949-3.448-2.664-6.148-5.137-8.098c-2.611-2.057-5.545-3.082-8.804-3.082
	c-5.674,0-9.849,2.039-12.521,6.114c-2.675,4.075-4.011,9.669-4.011,16.775c0,7.237,1.321,12.864,3.962,16.875
	c2.641,4.008,6.604,6.015,11.886,6.015c4.043,0,7.288-1.093,9.732-3.275c2.356-2.105,4-5.104,4.936-8.989
	c0.036-0.149,0.103-0.248,0.199-0.335c0.173-0.155,0.521-0.117,0.521-0.117h12.433c0,0,0.23,0.005,0.344,0.102
	C59.285,101.63,59.308,101.77,59.272,101.938z"/>
<path fill="#FFFFFF" d="M94.606,71.829c-0.321,0-0.585-0.263-0.585-0.585V60.577c0-0.322,0.264-0.585,0.585-0.585h11.546
	c0.321,0,0.584,0.263,0.584,0.585v10.667c0,0.322-0.264,0.585-0.584,0.585H94.606z"/>
<path fill="#FFFFFF" d="M94.606,125.728c-0.321,0-0.585-0.263-0.585-0.585V78.187c0-0.323,0.264-0.586,0.585-0.586h11.546
	c0.321,0,0.584,0.263,0.584,0.586v46.956c0,0.322-0.264,0.585-0.584,0.585H94.606z"/>
<path fill="#FFFFFF" d="M157.361,91.152c-0.883-3.035-2.168-5.657-3.865-7.877c-1.697-2.217-3.766-3.929-6.211-5.137
	c-2.446-1.204-5.234-1.808-8.364-1.808c-5.937,0-10.695,2.511-14.282,7.531V71.011v-2.545v-1.193v-3.679v-2.408
	c0-0.655-0.537-1.193-1.193-1.193h-10.136c-0.656,0-1.192,0.538-1.192,1.193v2.408v3.679v1.193v2.545v45.897v5.641v2.594
	c0,0.322,0.263,0.585,0.585,0.585h11.136c0.322,0,0.585-0.263,0.585-0.585v-4.109l0.021-1.167c2.936,4.759,7.4,7.142,13.401,7.142
	c2.997,0,5.787-0.589,8.364-1.762c2.576-1.178,4.778-2.87,6.603-5.091c1.824-2.216,3.262-4.922,4.304-8.12
	c1.042-3.194,1.564-6.81,1.564-10.856C158.68,97.525,158.24,94.185,157.361,91.152z M142.735,112.573
	c-2.023,2.709-4.63,4.062-7.826,4.062c-3.065,0-5.624-1.271-7.68-3.815c-2.054-2.545-3.081-5.867-3.081-9.978
	c0-10.435,3.555-15.651,10.665-15.651c7.303,0,10.955,4.956,10.955,14.868C145.768,106.363,144.755,109.869,142.735,112.573z"/>
<path fill="#FFFFFF" d="M90.797,88.785L90.795,76.91c0,0,0.016-0.238-0.158-0.413c-0.175-0.173-0.391-0.166-0.391-0.166h-1.114
	c-1.307,0-2.579,0.065-3.816,0.194c-1.237,0.134-2.463,0.441-3.667,0.931c-1.209,0.486-2.384,1.189-3.523,2.102
	c-1.142,0.913-2.235,2.186-3.277,3.816v-1.217v-2.255v-1.716c0-0.323-0.263-0.586-0.585-0.586H63.501
	c-0.322,0-0.584,0.263-0.584,0.586v1.716v2.255v39.297v1.932v1.757c0,0.322,0.262,0.585,0.584,0.585h11.546
	c0.322,0,0.585-0.263,0.585-0.585v-1.502v-2.187v-20.769c0-7.757,3.881-11.641,11.643-11.641c1.041,0,1.912,0.054,2.955,0.209
	c0.124,0.011,0.27,0.033,0.452-0.112C90.81,89.04,90.797,88.785,90.797,88.785z"/>
<path fill="#FFFFFF" d="M392.275,94.037h-10.667c-0.323,0-0.586,0.265-0.586,0.586v1.083v0.925v9.934
	c0,2.999-0.606,5.313-1.812,6.944c-1.208,1.631-3.081,2.446-5.627,2.446c-2.606,0-4.484-0.834-5.624-2.498
	c-1.144-1.664-1.715-4.023-1.715-7.093V87.041c0,0-0.018-0.146,0.109-0.302c0.107-0.13,0.293-0.137,0.293-0.137h22.124h1.751h1.751
	c0.32,0,0.583-0.264,0.583-0.585v-7.831c0-0.322-0.263-0.586-0.583-0.586h-1.751h-1.751h-21.703c0,0-0.497,0.012-0.662-0.145
	c-0.217-0.204-0.161-0.727-0.161-0.727v-8.634v-1.461v-1.459c0-0.322-0.263-0.586-0.583-0.586H354.31
	c-0.324,0-0.587,0.264-0.587,0.586v1.406v1.514v39.541c0,2.61,0.359,5.087,1.078,7.437c0.714,2.351,1.871,4.4,3.474,6.161
	c1.598,1.765,3.634,3.168,6.115,4.207c2.478,1.045,5.479,1.566,8.998,1.566c3.395,0,6.314-0.521,8.756-1.566
	c2.449-1.039,4.468-2.461,6.07-4.253c1.598-1.794,2.77-3.85,3.521-6.166c0.747-2.314,1.124-4.745,1.124-7.288V96.631v-0.925v-1.083
	C392.859,94.302,392.597,94.037,392.275,94.037z"/>
<path fill="#FFFFFF" d="M347.416,85.475c-0.812-1.987-1.924-3.668-3.325-5.037c-1.404-1.37-3.084-2.398-5.038-3.084
	c-1.96-0.68-4.077-1.025-6.36-1.025c-3.914,0-7.112,0.702-9.587,2.106c-2.209,1.246-4.026,3.021-5.458,5.327
	c0,0-0.153,0.314-0.337,0.278c-0.183-0.037-0.176-0.376-0.176-0.376v-2.845v-1.463v-1.172c0-0.321-0.265-0.586-0.586-0.586h-10.96
	c-0.321,0-0.586,0.265-0.586,0.586v1.172v1.463v43.06v0.439v0.829c0,0.322,0.265,0.585,0.586,0.585h11.546
	c0.324,0,0.587-0.263,0.587-0.585v-0.893v-0.376V98.146c0-7.374,3.295-11.058,9.882-11.058c2.999,0,5.119,0.654,6.36,1.956
	c1.236,1.308,1.857,3.818,1.857,7.534v26.549v1.009v1.011c0,0.322,0.266,0.585,0.586,0.585h11.648c0.321,0,0.586-0.263,0.586-0.585
	v-1.011v-1.009V92.374C348.642,89.765,348.229,87.465,347.416,85.475z"/>
<path fill="#FFFFFF" d="M299.325,77.599h-11.449c-0.323,0-0.586,0.265-0.586,0.586v1.392v1.391v24.42
	c0,3.196-0.831,5.818-2.495,7.877c-1.664,2.057-4.12,3.081-7.385,3.081c-5.412,0-8.118-2.999-8.118-9.003V80.479v-1.001v-1.294
	c0-0.321-0.266-0.586-0.587-0.586h-11.548c-0.321,0-0.586,0.265-0.586,0.586v1.294v1.001v28.819c0,2.677,0.411,5.089,1.226,7.242
	c0.815,2.15,1.939,4.011,3.376,5.575c1.435,1.562,3.147,2.771,5.138,3.616c1.987,0.846,4.188,1.274,6.603,1.274
	c6.717,0,11.706-2.676,14.968-8.023v3.425v1.37v1.369c0,0.322,0.266,0.585,0.586,0.585h10.858c0.324,0,0.586-0.263,0.586-0.585
	v-0.763v-1.977V80.967v-1.391v-1.392C299.911,77.863,299.649,77.599,299.325,77.599z"/>
</svg>
